{
  "title": "Chappie.2015.NEW.ViDEO.CAM.XViD-FANTA",
  "uid": 11748701,
  "size": 801145841,
  "categoryP": "video",
  "categoryS": "movies",
  "magnet": "?xt=urn:btih:9fbde85133418bce8032f268aafdb248dc1386ae&amp;dn=Chappie.2015.NEW.ViDEO.CAM.XViD-FANTA&amp;tr=udp%3A%2F%2Ftracker.openbittorrent.com%3A80&amp;tr=udp%3A%2F%2Fopen.demonii.com%3A1337&amp;tr=udp%3A%2F%2Ftracker.coppersurfer.tk%3A6969&amp;tr=udp%3A%2F%2Fexodus.desync.com%3A6969",
  "seeders": 170,
  "leechers": 12,
  "uploader": "xxxlavalxxx",
  "files": 4,
  "time": 1426116229,
  "description": " &lt;a href=&quot;http://www.imdb.com/title/tt1823672/&quot; rel=&quot;nofollow&quot; target=&quot;_NEW&quot;&gt;http://www.imdb.com/title/tt1823672/&lt;/a&gt;\n\nIn the near future, crime is patrolled by a mechanized police force. When one police droid, Chappie, is stolen and given new programming, he becomes the first robot with the ability to think and feel for himself.\nDirector: Neill Blomkamp\nWriters: Neill Blomkamp, Terri Tatchell\nStars: Sharlto Copley, Dev Patel, Hugh Jackman\nGenres: Action | Sci-Fi | Thriller\nCountry: USA | Mexico\nLanguage: English\n\nFormat                                   : AVI\nFormat/Info                              : Audio Video Interleave\nFormat profile                           : OpenDML\nFormat settings                          : rec\nFile size                                : 750 MiB\nDuration                                 : 1h 50mn\nOverall bit rate                         : 948 Kbps\nWriting application                      : AVI-Mux GUI 1.17.8.3, Feb 16 201019:42:50\nVideo\nID                                       : 0\nFormat                                   : MPEG-4 Visual\nFormat profile                           : Advanced Simple@L5\nFormat settings, BVOP                    : 4\nFormat settings, QPel                    : No\nFormat settings, GMC                     : No warppoints\nFormat settings, Matrix                  : Default (MPEG)\nCodec ID                                 : XVID\nCodec ID/Hint                            : XviD\nDuration                                 : 1h 50mn\nBit rate                                 : 750 Kbps\nWidth                                    : 640 pixels\nHeight                                   : 320 pixels\nDisplay aspect ratio                     : 2.000\nFrame rate                               : 25.000 fps\nColor space                              : YUV\nChroma subsampling                       : 4:2:0\nBit depth                                : 8 bits\nScan type                                : Progressive\nCompression mode                         : Lossy\nBits/(Pixel*Frame)                       : 0.147\nStream size                              : 594 MiB (79%)\nWriting library                          : XviD 1.2.1 (UTC 2008-12-04)\nAudio\nID                                       : 1\nFormat                                   : AC-3\nFormat/Info                              : Audio Coding 3\nMode extension                           : CM (complete main)\nFormat settings, Endianness              : Big\nCodec ID                                 : 2000\nDuration                                 : 1h 50mn\nBit rate mode                            : Constant\nBit rate                                 : 192 Kbps\nChannel(s)                               : 2 channels\nChannel positions                        : Front: L R\nSampling rate                            : 44.1 KHz\nBit depth                                : 16 bits\nCompression mode                         : Lossy\nStream size                              : 152 MiB (20%)\nAlignment                                : Aligned on interleaves\nInterleave, duration                     : 70 ms (1.74 video frames)\nInterleave, preload duration             : 208 ms\nTitle                                    : Chappie 2015 ENG CAM\n &lt;a href=&quot;\nhttp://i.imgur.com/StD0fBi.jpg&quot; rel=&quot;nofollow&quot; target=&quot;_NEW&quot;&gt;\nhttp://i.imgur.com/StD0fBi.jpg&lt;/a&gt; &lt;a href=&quot;\nhttp://i.imgur.com/iFEPkhI.jpg&quot; rel=&quot;nofollow&quot; target=&quot;_NEW&quot;&gt;\nhttp://i.imgur.com/iFEPkhI.jpg&lt;/a&gt; &lt;a href=&quot;\nhttp://i.imgur.com/ww7tKmf.jpg&quot; rel=&quot;nofollow&quot; target=&quot;_NEW&quot;&gt;\nhttp://i.imgur.com/ww7tKmf.jpg&lt;/a&gt; &lt;a href=&quot;\nhttp://i.imgur.com/ckHIBSi.jpg&quot; rel=&quot;nofollow&quot; target=&quot;_NEW&quot;&gt;\nhttp://i.imgur.com/ckHIBSi.jpg&lt;/a&gt; &lt;a href=&quot;\nhttp://i.imgur.com/97MAmgd.jpg&quot; rel=&quot;nofollow&quot; target=&quot;_NEW&quot;&gt;\nhttp://i.imgur.com/97MAmgd.jpg&lt;/a&gt;",
  "parsed": {
    "xt": "urn:btih:9fbde85133418bce8032f268aafdb248dc1386ae",
    "dn": "Chappie.2015.NEW.ViDEO.CAM.XViD-FANTA",
    "tr": [
      "udp://exodus.desync.com:6969",
      "udp://open.demonii.com:1337",
      "udp://tracker.coppersurfer.tk:6969",
      "udp://tracker.openbittorrent.com:80"
    ],
    "infoHash": "9fbde85133418bce8032f268aafdb248dc1386ae",
    "infoHashBuffer": {
      "type": "Buffer",
      "data": [
        159,
        189,
        232,
        81,
        51,
        65,
        139,
        206,
        128,
        50,
        242,
        104,
        170,
        253,
        178,
        72,
        220,
        19,
        134,
        174
      ]
    },
    "name": "Chappie.2015.NEW.ViDEO.CAM.XViD-FANTA",
    "announce": [
      "udp://exodus.desync.com:6969",
      "udp://open.demonii.com:1337",
      "udp://tracker.coppersurfer.tk:6969",
      "udp://tracker.openbittorrent.com:80"
    ],
    "urlList": []
  },
  "previous": 11,
  "peers": 19,
  "last_updated": "2016-12-27T08:38:10.131Z"
}